<mxfile host="65bd71144e">
    <diagram name="EKS Architecture" id="eks-architecture">
        <mxGraphModel dx="959" dy="947" grid="1" gridSize="10" guides="1" tooltips="1" connect="1" arrows="1" fold="1" page="1" pageScale="1" pageWidth="1169" pageHeight="827" math="0" shadow="0">
            <root>
                <mxCell id="0"/>
                <mxCell id="1" parent="0"/>
                <mxCell id="aws-cloud" value="AWS Cloud" style="sketch=0;outlineConnect=0;gradientColor=none;html=1;whiteSpace=wrap;fontSize=12;fontStyle=0;container=1;pointerEvents=0;collapsible=0;recursiveResize=0;shape=mxgraph.aws4.group;grIcon=mxgraph.aws4.group_aws_cloud;strokeColor=#232F3E;fillColor=none;verticalAlign=top;align=left;spacingLeft=30;fontColor=#232F3E;dashed=0;" parent="1" vertex="1">
                    <mxGeometry x="50" y="50" width="1070" height="727" as="geometry"/>
                </mxCell>
                <mxCell id="vpc" value="VPC (10.0.0.0/16)" style="points=[[0,0],[0.25,0],[0.5,0],[0.75,0],[1,0],[1,0.25],[1,0.5],[1,0.75],[1,1],[0.75,1],[0.5,1],[0.25,1],[0,1],[0,0.75],[0,0.5],[0,0.25]];outlineConnect=0;gradientColor=none;html=1;whiteSpace=wrap;fontSize=12;fontStyle=0;container=1;pointerEvents=0;collapsible=0;recursiveResize=0;shape=mxgraph.aws4.group;grIcon=mxgraph.aws4.group_vpc;strokeColor=#248814;fillColor=none;verticalAlign=top;align=left;spacingLeft=30;fontColor=#232F3E;dashed=0;" parent="aws-cloud" vertex="1">
                    <mxGeometry x="30" y="50" width="1010" height="647" as="geometry"/>
                </mxCell>
                <mxCell id="public-subnet-a" value="Public Subnet&#xa;10.0.1.0/24&#xa;AZ-a" style="points=[[0,0],[0.25,0],[0.5,0],[0.75,0],[1,0],[1,0.25],[1,0.5],[1,0.75],[1,1],[0.75,1],[0.5,1],[0.25,1],[0,1],[0,0.75],[0,0.5],[0,0.25]];outlineConnect=0;gradientColor=none;html=1;whiteSpace=wrap;fontSize=12;fontStyle=0;container=1;pointerEvents=0;collapsible=0;recursiveResize=0;shape=mxgraph.aws4.group;grIcon=mxgraph.aws4.group_security_group;strokeColor=#7AA116;fillColor=#F2F6E8;verticalAlign=top;align=center;spacingLeft=30;fontColor=#232F3E;dashed=0;" parent="vpc" vertex="1">
                    <mxGeometry x="50" y="50" width="200" height="120" as="geometry"/>
                </mxCell>
                <mxCell id="alb-a" value="ALB" style="sketch=0;outlineConnect=0;fontColor=#232F3E;gradientColor=none;fillColor=#8C4FFF;strokeColor=none;dashed=0;verticalLabelPosition=bottom;verticalAlign=top;align=center;html=1;fontSize=12;fontStyle=0;aspect=fixed;pointerEvents=1;shape=mxgraph.aws4.application_load_balancer;" parent="public-subnet-a" vertex="1">
                    <mxGeometry x="85" y="60" width="30" height="30" as="geometry"/>
                </mxCell>
                <mxCell id="nat-gateway" value="NAT Gateway" style="sketch=0;outlineConnect=0;fontColor=#232F3E;gradientColor=none;fillColor=#8C4FFF;strokeColor=none;dashed=0;verticalLabelPosition=bottom;verticalAlign=top;align=center;html=1;fontSize=10;fontStyle=0;aspect=fixed;pointerEvents=1;shape=mxgraph.aws4.nat_gateway;" parent="public-subnet-a" vertex="1">
                    <mxGeometry x="20" y="60" width="40" height="40" as="geometry"/>
                </mxCell>
                <mxCell id="public-subnet-b" value="Public Subnet&#xa;10.0.2.0/24&#xa;AZ-b" style="points=[[0,0],[0.25,0],[0.5,0],[0.75,0],[1,0],[1,0.25],[1,0.5],[1,0.75],[1,1],[0.75,1],[0.5,1],[0.25,1],[0,1],[0,0.75],[0,0.5],[0,0.25]];outlineConnect=0;gradientColor=none;html=1;whiteSpace=wrap;fontSize=12;fontStyle=0;container=1;pointerEvents=0;collapsible=0;recursiveResize=0;shape=mxgraph.aws4.group;grIcon=mxgraph.aws4.group_security_group;strokeColor=#7AA116;fillColor=#F2F6E8;verticalAlign=top;align=center;spacingLeft=30;fontColor=#232F3E;dashed=0;" parent="vpc" vertex="1">
                    <mxGeometry x="300" y="50" width="200" height="120" as="geometry"/>
                </mxCell>
                <mxCell id="alb-b" value="ALB" style="sketch=0;outlineConnect=0;fontColor=#232F3E;gradientColor=none;fillColor=#8C4FFF;strokeColor=none;dashed=0;verticalLabelPosition=bottom;verticalAlign=top;align=center;html=1;fontSize=12;fontStyle=0;aspect=fixed;pointerEvents=1;shape=mxgraph.aws4.application_load_balancer;" parent="public-subnet-b" vertex="1">
                    <mxGeometry x="85" y="60" width="30" height="30" as="geometry"/>
                </mxCell>
                <mxCell id="private-subnet-a" value="Private Subnet&#xa;10.0.3.0/24&#xa;AZ-a" style="points=[[0,0],[0.25,0],[0.5,0],[0.75,0],[1,0],[1,0.25],[1,0.5],[1,0.75],[1,1],[0.75,1],[0.5,1],[0.25,1],[0,1],[0,0.75],[0,0.5],[0,0.25]];outlineConnect=0;gradientColor=none;html=1;whiteSpace=wrap;fontSize=12;fontStyle=0;container=1;pointerEvents=0;collapsible=0;recursiveResize=0;shape=mxgraph.aws4.group;grIcon=mxgraph.aws4.group_security_group;strokeColor=#147EBA;fillColor=#E6F2F8;verticalAlign=top;align=center;spacingLeft=30;fontColor=#232F3E;dashed=0;" parent="vpc" vertex="1">
                    <mxGeometry x="50" y="220" width="200" height="150" as="geometry"/>
                </mxCell>
                <mxCell id="7" value="&lt;span style=&quot;color: rgb(35, 47, 62); font-size: 10px;&quot;&gt;EKS Worker Nodes&lt;/span&gt;&lt;br style=&quot;font-size: 10px;&quot;&gt;&lt;span style=&quot;color: rgb(35, 47, 62); font-size: 10px;&quot;&gt;(EC2 Auto Scaling)&lt;/span&gt;" style="sketch=0;points=[[0,0,0],[0.25,0,0],[0.5,0,0],[0.75,0,0],[1,0,0],[0,1,0],[0.25,1,0],[0.5,1,0],[0.75,1,0],[1,1,0],[0,0.25,0],[0,0.5,0],[0,0.75,0],[1,0.25,0],[1,0.5,0],[1,0.75,0]];outlineConnect=0;fontColor=#232F3E;fillColor=#ED7100;strokeColor=#ffffff;dashed=0;verticalLabelPosition=bottom;verticalAlign=top;align=center;html=1;fontSize=12;fontStyle=0;aspect=fixed;shape=mxgraph.aws4.resourceIcon;resIcon=mxgraph.aws4.eks_cloud;" vertex="1" parent="private-subnet-a">
                    <mxGeometry x="75" y="70" width="50" height="50" as="geometry"/>
                </mxCell>
                <mxCell id="private-subnet-b" value="Private Subnet&#xa;10.0.4.0/24&#xa;AZ-b" style="points=[[0,0],[0.25,0],[0.5,0],[0.75,0],[1,0],[1,0.25],[1,0.5],[1,0.75],[1,1],[0.75,1],[0.5,1],[0.25,1],[0,1],[0,0.75],[0,0.5],[0,0.25]];outlineConnect=0;gradientColor=none;html=1;whiteSpace=wrap;fontSize=12;fontStyle=0;container=1;pointerEvents=0;collapsible=0;recursiveResize=0;shape=mxgraph.aws4.group;grIcon=mxgraph.aws4.group_security_group;strokeColor=#147EBA;fillColor=#E6F2F8;verticalAlign=top;align=center;spacingLeft=30;fontColor=#232F3E;dashed=0;" parent="vpc" vertex="1">
                    <mxGeometry x="300" y="220" width="200" height="150" as="geometry"/>
                </mxCell>
                <mxCell id="8" value="&lt;span style=&quot;color: rgb(35, 47, 62); font-size: 10px;&quot;&gt;EKS Worker Nodes&lt;/span&gt;&lt;br style=&quot;font-size: 10px;&quot;&gt;&lt;span style=&quot;color: rgb(35, 47, 62); font-size: 10px;&quot;&gt;(EC2 Auto Scaling)&lt;/span&gt;" style="sketch=0;points=[[0,0,0],[0.25,0,0],[0.5,0,0],[0.75,0,0],[1,0,0],[0,1,0],[0.25,1,0],[0.5,1,0],[0.75,1,0],[1,1,0],[0,0.25,0],[0,0.5,0],[0,0.75,0],[1,0.25,0],[1,0.5,0],[1,0.75,0]];outlineConnect=0;fontColor=#232F3E;fillColor=#ED7100;strokeColor=#ffffff;dashed=0;verticalLabelPosition=bottom;verticalAlign=top;align=center;html=1;fontSize=12;fontStyle=0;aspect=fixed;shape=mxgraph.aws4.resourceIcon;resIcon=mxgraph.aws4.eks_cloud;" vertex="1" parent="private-subnet-b">
                    <mxGeometry x="75" y="60" width="50" height="50" as="geometry"/>
                </mxCell>
                <mxCell id="eks-control-plane" value="EKS Control Plane&#xa;(AWS Managed)" style="sketch=0;outlineConnect=0;fontColor=#232F3E;gradientColor=none;fillColor=#ED7100;strokeColor=none;dashed=0;verticalLabelPosition=bottom;verticalAlign=top;align=center;html=1;fontSize=12;fontStyle=0;aspect=fixed;pointerEvents=1;shape=mxgraph.aws4.eks_cloud;" parent="vpc" vertex="1">
                    <mxGeometry x="240" y="410" width="80" height="80" as="geometry"/>
                </mxCell>
                <mxCell id="supporting-services" value="Supporting Services" style="points=[[0,0],[0.25,0],[0.5,0],[0.75,0],[1,0],[1,0.25],[1,0.5],[1,0.75],[1,1],[0.75,1],[0.5,1],[0.25,1],[0,1],[0,0.75],[0,0.5],[0,0.25]];outlineConnect=0;gradientColor=none;html=1;whiteSpace=wrap;fontSize=12;fontStyle=0;container=1;pointerEvents=0;collapsible=0;recursiveResize=0;shape=mxgraph.aws4.group;grIcon=mxgraph.aws4.group_aws_cloud_alt;strokeColor=#232F3E;fillColor=none;verticalAlign=top;align=left;spacingLeft=30;fontColor=#232F3E;dashed=0;" parent="vpc" vertex="1">
                    <mxGeometry x="570" y="400" width="380" height="220" as="geometry"/>
                </mxCell>
                <mxCell id="cloudwatch" value="CloudWatch&#xa;(Monitoring)" style="sketch=0;outlineConnect=0;fontColor=#232F3E;gradientColor=none;fillColor=#759C3E;strokeColor=none;dashed=0;verticalLabelPosition=bottom;verticalAlign=top;align=center;html=1;fontSize=10;fontStyle=0;aspect=fixed;pointerEvents=1;shape=mxgraph.aws4.cloudwatch;" parent="supporting-services" vertex="1">
                    <mxGeometry x="120" y="50" width="50" height="50" as="geometry"/>
                </mxCell>
                <mxCell id="route53" value="Route53&#xa;(DNS)" style="sketch=0;outlineConnect=0;fontColor=#232F3E;gradientColor=none;fillColor=#8C4FFF;strokeColor=none;dashed=0;verticalLabelPosition=bottom;verticalAlign=top;align=center;html=1;fontSize=10;fontStyle=0;aspect=fixed;pointerEvents=1;shape=mxgraph.aws4.route_53;" parent="supporting-services" vertex="1">
                    <mxGeometry x="30" y="140" width="50" height="50" as="geometry"/>
                </mxCell>
                <mxCell id="2" value="&lt;span style=&quot;color: rgb(35, 47, 62); font-size: 10px;&quot;&gt;ECR&lt;/span&gt;&lt;br style=&quot;font-size: 10px;&quot;&gt;&lt;span style=&quot;color: rgb(35, 47, 62); font-size: 10px;&quot;&gt;(Container Registry)&lt;/span&gt;" style="sketch=0;points=[[0,0,0],[0.25,0,0],[0.5,0,0],[0.75,0,0],[1,0,0],[0,1,0],[0.25,1,0],[0.5,1,0],[0.75,1,0],[1,1,0],[0,0.25,0],[0,0.5,0],[0,0.75,0],[1,0.25,0],[1,0.5,0],[1,0.75,0]];outlineConnect=0;fontColor=#232F3E;fillColor=#ED7100;strokeColor=#ffffff;dashed=0;verticalLabelPosition=bottom;verticalAlign=top;align=center;html=1;fontSize=12;fontStyle=0;aspect=fixed;shape=mxgraph.aws4.resourceIcon;resIcon=mxgraph.aws4.ecr;" vertex="1" parent="supporting-services">
                    <mxGeometry x="30" y="50" width="50" height="50" as="geometry"/>
                </mxCell>
                <mxCell id="5" value="&lt;span style=&quot;color: rgb(35, 47, 62); font-size: 10px;&quot;&gt;IAM&lt;/span&gt;&lt;br style=&quot;font-size: 10px;&quot;&gt;&lt;span style=&quot;color: rgb(35, 47, 62); font-size: 10px;&quot;&gt;(Roles)&lt;/span&gt;" style="sketch=0;outlineConnect=0;fontColor=#232F3E;gradientColor=none;fillColor=#DD344C;strokeColor=none;dashed=0;verticalLabelPosition=bottom;verticalAlign=top;align=center;html=1;fontSize=12;fontStyle=0;aspect=fixed;pointerEvents=1;shape=mxgraph.aws4.role;" vertex="1" parent="supporting-services">
                    <mxGeometry x="200" y="53" width="78" height="44" as="geometry"/>
                </mxCell>
                <mxCell id="igw" value="Internet Gateway" style="sketch=0;outlineConnect=0;fontColor=#232F3E;gradientColor=none;fillColor=#8C4FFF;strokeColor=none;dashed=0;verticalLabelPosition=bottom;verticalAlign=top;align=center;html=1;fontSize=10;fontStyle=0;aspect=fixed;pointerEvents=1;shape=mxgraph.aws4.internet_gateway;" parent="vpc" vertex="1">
                    <mxGeometry x="275" y="10" width="40" height="40" as="geometry"/>
                </mxCell>
                <mxCell id="internet" value="Internet" style="ellipse;shape=cloud;whiteSpace=wrap;html=1;fontSize=12;fontColor=#232F3E;fillColor=#F2F2F2;strokeColor=#666666;" parent="1" vertex="1">
                    <mxGeometry x="300" y="10" width="80" height="50" as="geometry"/>
                </mxCell>
                <mxCell id="connection-internet-igw" style="endArrow=classic;html=1;rounded=0;strokeColor=#232F3E;" parent="1" source="internet" target="igw" edge="1">
                    <mxGeometry width="50" height="50" relative="1" as="geometry">
                        <mxPoint x="340" y="60" as="sourcePoint"/>
                        <mxPoint x="325" y="100" as="targetPoint"/>
                    </mxGeometry>
                </mxCell>
                <mxCell id="connection-igw-alb" style="endArrow=classic;html=1;rounded=0;strokeColor=#232F3E;" parent="1" source="igw" target="alb-a" edge="1">
                    <mxGeometry width="50" height="50" relative="1" as="geometry">
                        <mxPoint x="295" y="90" as="sourcePoint"/>
                        <mxPoint x="185" y="135" as="targetPoint"/>
                    </mxGeometry>
                </mxCell>
                <mxCell id="connection-alb-eks" style="endArrow=classic;html=1;rounded=0;strokeColor=#232F3E;" parent="1" source="alb-a" edge="1">
                    <mxGeometry width="50" height="50" relative="1" as="geometry">
                        <mxPoint x="185" y="175" as="sourcePoint"/>
                        <mxPoint x="230" y="390" as="targetPoint"/>
                    </mxGeometry>
                </mxCell>
                <mxCell id="connection-eks-control" style="endArrow=classic;html=1;rounded=0;strokeColor=#232F3E;" parent="1" target="eks-control-plane" edge="1">
                    <mxGeometry width="50" height="50" relative="1" as="geometry">
                        <mxPoint x="255" y="409.21296296296305" as="sourcePoint"/>
                        <mxPoint x="700" y="240" as="targetPoint"/>
                    </mxGeometry>
                </mxCell>
            </root>
        </mxGraphModel>
    </diagram>
</mxfile>